# xmcd
#
# Track frame offsets: 
#        150
#        18946
#        42380
#        55229
#        94236
#        135047
#        167118
#        199980
#        216830
#
# Disc length: 3314 seconds
#
# Revision: 0
# Processed by: cddbd v1.5.2PL0 Copyright (c) Steve Scherf et al.
# Submitted via: ExactAudioCopy v1.0b3
#
DISCID=780cf009
DTITLE=Victor Cerullo - Loneflyer
DYEAR=2000
DGENRE=Electronic
TTITLE0=Loneflyer
TTITLE1=Poetry and Power
TTITLE2=Judgement
TTITLE3=Jonathan's Theme
TTITLE4=Above the Clouds
TTITLE5=Collision
TTITLE6=Healing
TTITLE7=Stars Symphony
TTITLE8=Gracia de Amor
EXTD=
EXTT0=
EXTT1=
EXTT2=
EXTT3=
EXTT4=
EXTT5=
EXTT6=
EXTT7=
EXTT8=
PLAYORDER=
